<svg width="60" height="60" viewBox="0 0 60 60" fill="none" xmlns="http://www.w3.org/2000/svg">
<mask id="path-1-inside-1_12282_15974" fill="white">
<path fill-rule="evenodd" clip-rule="evenodd" d="M37.0511 26.5255C37.0511 32.3386 32.3386 37.0511 26.5255 37.0511C20.7124 37.0511 16 32.3386 16 26.5255C16 20.7124 20.7124 16 26.5255 16C32.3386 16 37.0511 20.7124 37.0511 26.5255ZM35.877 40.1525C33.2178 41.9809 29.9966 43.0511 26.5255 43.0511C17.3987 43.0511 10 35.6524 10 26.5255C10 17.3987 17.3987 10 26.5255 10C35.6524 10 43.0511 17.3987 43.0511 26.5255C43.0511 30.0136 41.9704 33.2492 40.1257 35.9159L43.9155 39.7057L47.1155 42.9057L51.3581 47.1484L47.1155 51.391L42.8729 47.1484L39.6728 43.9483L35.877 40.1525Z"/>
</mask>
<path d="M35.877 40.1525L40.1197 35.9099L36.5904 32.3806L32.4776 35.2084L35.877 40.1525ZM40.1257 35.9159L35.1913 32.5025L32.3436 36.6191L35.8831 40.1586L40.1257 35.9159ZM51.3581 47.1484L55.6008 51.391L59.8434 47.1484L55.6008 42.9057L51.3581 47.1484ZM47.1155 51.391L42.8729 55.6337L47.1155 59.8763L51.3581 55.6337L47.1155 51.391ZM26.5255 43.0511C35.6524 43.0511 43.0511 35.6524 43.0511 26.5255H31.0511C31.0511 29.0249 29.0249 31.0511 26.5255 31.0511V43.0511ZM10 26.5255C10 35.6524 17.3987 43.0511 26.5255 43.0511V31.0511C24.0262 31.0511 22 29.0249 22 26.5255H10ZM26.5255 10C17.3987 10 10 17.3987 10 26.5255H22C22 24.0262 24.0262 22 26.5255 22V10ZM43.0511 26.5255C43.0511 17.3987 35.6524 10 26.5255 10V22C29.0249 22 31.0511 24.0262 31.0511 26.5255H43.0511ZM26.5255 49.0511C31.2487 49.0511 35.6489 47.5908 39.2764 45.0966L32.4776 35.2084C30.7866 36.3711 28.7445 37.0511 26.5255 37.0511V49.0511ZM4 26.5255C4 38.9661 14.085 49.0511 26.5255 49.0511V37.0511C20.7124 37.0511 16 32.3386 16 26.5255H4ZM26.5255 4C14.085 4 4 14.085 4 26.5255H16C16 20.7124 20.7124 16 26.5255 16V4ZM49.0511 26.5255C49.0511 14.085 38.9661 4 26.5255 4V16C32.3386 16 37.0511 20.7124 37.0511 26.5255H49.0511ZM45.0601 39.3294C47.5764 35.6919 49.0511 31.2719 49.0511 26.5255H37.0511C37.0511 28.7552 36.3645 30.8066 35.1913 32.5025L45.0601 39.3294ZM48.1581 35.463L44.3683 31.6733L35.8831 40.1586L39.6728 43.9483L48.1581 35.463ZM51.3581 38.6631L48.1581 35.463L39.6728 43.9483L42.8729 47.1484L51.3581 38.6631ZM55.6008 42.9057L51.3581 38.6631L42.8729 47.1484L47.1155 51.391L55.6008 42.9057ZM51.3581 55.6337L55.6008 51.391L47.1155 42.9057L42.8729 47.1484L51.3581 55.6337ZM38.6302 51.391L42.8729 55.6337L51.3581 47.1484L47.1155 42.9057L38.6302 51.391ZM35.4302 48.191L38.6302 51.391L47.1155 42.9057L43.9155 39.7057L35.4302 48.191ZM31.6344 44.3952L35.4302 48.191L43.9155 39.7057L40.1197 35.9099L31.6344 44.3952Z" fill="black" mask="url(#path-1-inside-1_12282_15974)"/>
</svg>
