<svg xmlns="http://www.w3.org/2000/svg" width="33" height="44" viewBox="0 0 33 44" fill="none">
  <mask id="path-1-inside-1_12353_2869" fill="white">
    <path fill-rule="evenodd" clip-rule="evenodd" d="M15 0H17V2V3V5H18.2291C24.234 6.07769 28.8799 11.4661 28.8799 17.7167V28.4937L31.1517 32.9598L32.1691 34.9598H29.9252H2.24389H0L1.01736 32.9598L3.28921 28.4937V17.7167C3.28921 11.2506 7.93504 6.07769 13.9399 5H15V3V2V0ZM15.97 42C14.5168 42 13.2291 41.1945 12.5373 40H19.4027C18.7109 41.1945 17.4232 42 15.97 42ZM10 38C10 38.7004 10.121 39.3737 10.3431 40C11.1672 42.3245 13.3834 44 15.97 44C18.5566 44 20.7728 42.3245 21.5969 40C21.819 39.3737 21.94 38.7004 21.94 38H19.94H12H10ZM27.0972 29.4004L28.9078 32.9598H3.26125L5.07183 29.4004L5.28921 28.9731V28.4937V17.7167C5.28921 12.3164 9.11836 7.97842 14.1254 7H18.0432C23.0309 7.97924 26.8799 12.5095 26.8799 17.7167V28.4937V28.9731L27.0972 29.4004Z"/>
  </mask>
  <path d="M17 0H19V-2H17V0ZM15 0V-2H13V0H15ZM17 5H15V7H17V5ZM18.2291 5L18.5824 3.03145L18.4072 3H18.2291V5ZM28.8799 28.4937H26.8799V28.9731L27.0972 29.4004L28.8799 28.4937ZM31.1517 32.9598L32.9343 32.053L31.1517 32.9598ZM32.1691 34.9598V36.9598H35.4303L33.9517 34.053L32.1691 34.9598ZM0 34.9598L-1.78262 34.053L-3.26125 36.9598H0V34.9598ZM1.01736 32.9598L2.79998 33.8666H2.79998L1.01736 32.9598ZM3.28921 28.4937L5.07183 29.4004L5.28921 28.9731V28.4937H3.28921ZM13.9399 5V3H13.7619L13.5866 3.03145L13.9399 5ZM15 5V7H17V5H15ZM12.5373 40V38H9.06768L10.8066 41.0024L12.5373 40ZM19.4027 40L21.1334 41.0024L22.8723 38H19.4027V40ZM10.3431 40L8.45805 40.6684L10.3431 40ZM10 38V36H8V38H10ZM21.5969 40L23.482 40.6684L23.482 40.6684L21.5969 40ZM21.94 38H23.94V36H21.94V38ZM28.9078 32.9598V34.9598H32.1691L30.6904 32.053L28.9078 32.9598ZM27.0972 29.4004L25.3146 30.3072L27.0972 29.4004ZM3.26125 32.9598L1.47863 32.053L4.06108e-07 34.9598H3.26125V32.9598ZM5.07183 29.4004L6.85445 30.3072L5.07183 29.4004ZM5.28921 28.9731L7.07183 29.8799L7.28921 29.4526V28.9731H5.28921ZM14.1254 7V5H13.9318L13.7419 5.03712L14.1254 7ZM18.0432 7L18.4285 5.03747L18.2377 5H18.0432V7ZM26.8799 28.9731H24.8799V29.4526L25.0972 29.8799L26.8799 28.9731ZM17 -2H15V2H17V-2ZM19 2V0H15V2H19ZM19 3V2H15V3H19ZM19 5V3H15V5H19ZM18.2291 3H17V7H18.2291V3ZM30.8799 17.7167C30.8799 10.4809 25.5236 4.27717 18.5824 3.03145L17.8758 6.96855C22.9445 7.87821 26.8799 12.4514 26.8799 17.7167H30.8799ZM30.8799 28.4937V17.7167H26.8799V28.4937H30.8799ZM32.9343 32.053L30.6625 27.5869L27.0972 29.4004L29.3691 33.8666L32.9343 32.053ZM33.9517 34.053L32.9343 32.053L29.3691 33.8666L30.3864 35.8666L33.9517 34.053ZM29.9252 36.9598H32.1691V32.9598H29.9252V36.9598ZM2.24389 36.9598H29.9252V32.9598H2.24389V36.9598ZM0 36.9598H2.24389V32.9598H0V36.9598ZM-0.765258 32.053L-1.78262 34.053L1.78262 35.8666L2.79998 33.8666L-0.765258 32.053ZM1.50659 27.5869L-0.765258 32.053L2.79998 33.8666L5.07183 29.4004L1.50659 27.5869ZM1.28921 17.7167V28.4937H5.28921V17.7167H1.28921ZM13.5866 3.03145C6.66591 4.27351 1.28921 10.245 1.28921 17.7167H5.28921C5.28921 12.2562 9.20416 7.88188 14.2932 6.96855L13.5866 3.03145ZM15 3H13.9399V7H15V3ZM13 3V5H17V3H13ZM13 2V3H17V2H13ZM13 0V2H17V0H13ZM10.8066 41.0024C11.8353 42.7785 13.7627 44 15.97 44V40C15.2709 40 14.623 39.6106 14.2679 38.9976L10.8066 41.0024ZM19.4027 38H12.5373V42H19.4027V38ZM15.97 44C18.1773 44 20.1047 42.7785 21.1334 41.0024L17.6721 38.9976C17.317 39.6106 16.6691 40 15.97 40V44ZM12.2281 39.3316C12.0808 38.9161 12 38.4686 12 38H8C8 38.9322 8.16127 39.8314 8.45805 40.6684L12.2281 39.3316ZM15.97 42C14.2672 42 12.7818 40.8932 12.2281 39.3316L8.45805 40.6684C9.55273 43.7557 12.4996 46 15.97 46V42ZM19.7119 39.3316C19.1582 40.8932 17.6728 42 15.97 42V46C19.4404 46 22.3873 43.7557 23.482 40.6684L19.7119 39.3316ZM19.94 38C19.94 38.4686 19.8592 38.9161 19.7119 39.3316L23.482 40.6684C23.7787 39.8314 23.94 38.9322 23.94 38H19.94ZM19.94 40H21.94V36H19.94V40ZM12 40H19.94V36H12V40ZM10 40H12V36H10V40ZM30.6904 32.053L28.8799 28.4937L25.3146 30.3072L27.1252 33.8666L30.6904 32.053ZM3.26125 34.9598H28.9078V30.9598H3.26125V34.9598ZM3.28921 28.4937L1.47863 32.053L5.04387 33.8666L6.85445 30.3072L3.28921 28.4937ZM3.50659 28.0663L3.28921 28.4937L6.85445 30.3072L7.07183 29.8799L3.50659 28.0663ZM3.28921 28.4937V28.9731H7.28921V28.4937H3.28921ZM3.28921 17.7167V28.4937H7.28921V17.7167H3.28921ZM13.7419 5.03712C7.8317 6.19201 3.28921 11.3237 3.28921 17.7167H7.28921C7.28921 13.3091 10.405 9.76482 14.509 8.96288L13.7419 5.03712ZM18.0432 5H14.1254V9H18.0432V5ZM28.8799 17.7167C28.8799 11.5346 24.3356 6.19722 18.4285 5.03747L17.6579 8.96253C21.7261 9.76125 24.8799 13.4844 24.8799 17.7167H28.8799ZM28.8799 28.4937V17.7167H24.8799V28.4937H28.8799ZM28.8799 28.9731V28.4937H24.8799V28.9731H28.8799ZM28.8799 28.4937L28.6625 28.0663L25.0972 29.8799L25.3146 30.3072L28.8799 28.4937Z" fill="black" mask="url(#path-1-inside-1_12353_2869)"/>
</svg>