<svg xmlns="http://www.w3.org/2000/svg" width="39" height="42" viewBox="0 0 39 42" fill="none">
  <path d="M9.97436 17.9918L27.739 7.73537M9.97436 24.0082L27.739 34.2646M37.4103 6.12821C37.4103 8.96044 35.1143 11.2564 32.2821 11.2564C29.4498 11.2564 27.1538 8.96044 27.1538 6.12821C27.1538 3.29598 29.4498 1 32.2821 1C35.1143 1 37.4103 3.29598 37.4103 6.12821ZM11.2564 21C11.2564 23.8322 8.96044 26.1282 6.12821 26.1282C3.29598 26.1282 1 23.8322 1 21C1 18.1678 3.29598 15.8718 6.12821 15.8718C8.96044 15.8718 11.2564 18.1678 11.2564 21ZM37.4103 35.8718C37.4103 38.704 35.1143 41 32.2821 41C29.4498 41 27.1538 38.704 27.1538 35.8718C27.1538 33.0396 29.4498 30.7436 32.2821 30.7436C35.1143 30.7436 37.4103 33.0396 37.4103 35.8718Z" stroke="black" stroke-width="1.82051"/>
</svg>