<svg width="18" height="12" viewBox="0 0 18 12" fill="none" xmlns="http://www.w3.org/2000/svg">
<g id="Celluar">
<path id="Cellular Connection" fill-rule="evenodd" clip-rule="evenodd" d="M14.0781 1.28724C14.002 1.47101 14.002 1.70398 14.002 2.16992V9.83659C14.002 10.3025 14.002 10.5355 14.0781 10.7193C14.1796 10.9643 14.3742 11.159 14.6193 11.2605C14.803 11.3366 15.036 11.3366 15.502 11.3366C15.9679 11.3366 16.2009 11.3366 16.3846 11.2605C16.6297 11.159 16.8243 10.9643 16.9258 10.7193C17.002 10.5355 17.002 10.3025 17.002 9.83659V2.16992C17.002 1.70398 17.002 1.47101 16.9258 1.28724C16.8243 1.04221 16.6297 0.847536 16.3846 0.746042C16.2009 0.669922 15.9679 0.669922 15.502 0.669922C15.036 0.669922 14.803 0.669922 14.6193 0.746042C14.3742 0.847536 14.1796 1.04221 14.0781 1.28724ZM9.33529 4.50326C9.33529 4.03731 9.33529 3.80434 9.41141 3.62057C9.5129 3.37554 9.70757 3.18087 9.9526 3.07938C10.1364 3.00326 10.3693 3.00326 10.8353 3.00326C11.3012 3.00326 11.5342 3.00326 11.718 3.07938C11.963 3.18087 12.1577 3.37554 12.2592 3.62057C12.3353 3.80434 12.3353 4.03731 12.3353 4.50326V9.83659C12.3353 10.3025 12.3353 10.5355 12.2592 10.7193C12.1577 10.9643 11.963 11.159 11.718 11.2605C11.5342 11.3366 11.3012 11.3366 10.8353 11.3366C10.3693 11.3366 10.1364 11.3366 9.9526 11.2605C9.70757 11.159 9.5129 10.9643 9.41141 10.7193C9.33529 10.5355 9.33529 10.3025 9.33529 9.83659V4.50326ZM4.74474 5.95391C4.66862 6.13768 4.66862 6.37065 4.66862 6.83659V9.83659C4.66862 10.3025 4.66862 10.5355 4.74474 10.7193C4.84623 10.9643 5.04091 11.159 5.28594 11.2605C5.46971 11.3366 5.70268 11.3366 6.16862 11.3366C6.63456 11.3366 6.86753 11.3366 7.0513 11.2605C7.29633 11.159 7.49101 10.9643 7.5925 10.7193C7.66862 10.5355 7.66862 10.3025 7.66862 9.83659V6.83659C7.66862 6.37065 7.66862 6.13768 7.5925 5.95391C7.49101 5.70888 7.29633 5.5142 7.0513 5.41271C6.86753 5.33659 6.63456 5.33659 6.16862 5.33659C5.70268 5.33659 5.46971 5.33659 5.28594 5.41271C5.04091 5.5142 4.84623 5.70888 4.74474 5.95391ZM0.0780736 7.95391C0.00195312 8.13768 0.00195312 8.37065 0.00195312 8.83659V9.83659C0.00195312 10.3025 0.00195312 10.5355 0.0780736 10.7193C0.179568 10.9643 0.374242 11.159 0.61927 11.2605C0.803041 11.3366 1.03601 11.3366 1.50195 11.3366C1.96789 11.3366 2.20087 11.3366 2.38464 11.2605C2.62966 11.159 2.82434 10.9643 2.92583 10.7193C3.00195 10.5355 3.00195 10.3025 3.00195 9.83659V8.83659C3.00195 8.37065 3.00195 8.13768 2.92583 7.95391C2.82434 7.70888 2.62966 7.5142 2.38464 7.41271C2.20087 7.33659 1.96789 7.33659 1.50195 7.33659C1.03601 7.33659 0.803041 7.33659 0.61927 7.41271C0.374242 7.5142 0.179568 7.70888 0.0780736 7.95391Z" fill="black"/>
</g>
</svg>
