<svg version="1.0" xmlns="http://www.w3.org/2000/svg"
 width="512.000000pt" height="512.000000pt" viewBox="0 0 512.000000 512.000000"
 preserveAspectRatio="xMidYMid meet">

<g transform="translate(0.000000,512.000000) scale(0.100000,-0.100000)"
fill="#64748B" stroke="#64748B">
<path d="M739 4834 c-108 -33 -204 -131 -239 -243 -20 -62 -20 -96 -20 -1711
0 -1615 0 -1649 20 -1711 35 -115 132 -211 243 -244 36 -11 97 -15 214 -15
l163 0 0 -159 c0 -130 4 -170 20 -222 24 -77 78 -151 143 -196 99 -67 0 -63
1597 -63 1594 0 1497 -4 1596 63 65 43 120 118 144 196 20 62 20 96 20 1711 0
1615 0 1649 -20 1711 -36 116 -130 210 -243 244 -36 11 -97 15 -214 15 l-163
0 0 159 c0 130 -4 170 -20 222 -36 116 -130 210 -243 244 -74 22 -2927 21
-2998 -1z m2925 -320 c13 -13 16 -42 16 -160 l0 -144 -1123 0 c-1240 0 -1176
3 -1274 -63 -65 -45 -119 -119 -143 -196 -20 -62 -20 -95 -20 -1392 l0 -1329
-144 0 c-118 0 -147 3 -160 16 -14 14 -16 176 -16 1634 0 1458 2 1620 16 1634
14 14 157 16 1424 16 1267 0 1410 -2 1424 -16z m640 -640 c14 -14 16 -176 16
-1634 0 -1458 -2 -1620 -16 -1634 -14 -14 -157 -16 -1424 -16 -1267 0 -1410 2
-1424 16 -14 14 -16 176 -16 1634 0 1458 2 1620 16 1634 14 14 157 16 1424 16
1267 0 1410 -2 1424 -16z"/>
</g>
</svg>