<svg width="60" height="60" viewBox="0 0 60 60" fill="none" xmlns="http://www.w3.org/2000/svg">
<g id="icon">
<g id="tab_timetable_on">
<mask id="path-1-inside-1_7102_67517" fill="white">
<path fill-rule="evenodd" clip-rule="evenodd" d="M28 10H10V34H28V10ZM50 26H32V50H50V26ZM32 10H50V22H32V10ZM28 38H10V50H28V38Z"/>
</mask>
<path d="M10 10V8H8V10H10ZM28 10H30V8H28V10ZM10 34H8V36H10V34ZM28 34V36H30V34H28ZM32 26V24H30V26H32ZM50 26H52V24H50V26ZM32 50H30V52H32V50ZM50 50V52H52V50H50ZM50 10H52V8H50V10ZM32 10V8H30V10H32ZM50 22V24H52V22H50ZM32 22H30V24H32V22ZM10 38V36H8V38H10ZM28 38H30V36H28V38ZM10 50H8V52H10V50ZM28 50V52H30V50H28ZM10 12H28V8H10V12ZM12 34V10H8V34H12ZM28 32H10V36H28V32ZM26 10V34H30V10H26ZM32 28H50V24H32V28ZM34 50V26H30V50H34ZM50 48H32V52H50V48ZM48 26V50H52V26H48ZM50 8H32V12H50V8ZM52 22V10H48V22H52ZM32 24H50V20H32V24ZM30 10V22H34V10H30ZM10 40H28V36H10V40ZM12 50V38H8V50H12ZM28 48H10V52H28V48ZM26 38V50H30V38H26Z" fill="black" mask="url(#path-1-inside-1_7102_67517)"/>
</g>
</g>
</svg>
