<svg width="16" height="12" viewBox="0 0 16 12" fill="none" xmlns="http://www.w3.org/2000/svg">
<g id="Wi-Fi">
<path id="Wi-Fi_2" fill-rule="evenodd" clip-rule="evenodd" d="M9.84855 9.2154C9.90955 9.15473 9.94255 9.07106 9.94088 8.98406C9.93955 8.8974 9.90255 8.81506 9.83955 8.75706C8.58688 7.67473 6.75188 7.67473 5.49888 8.75706C5.43588 8.81506 5.39888 8.8974 5.39755 8.98406C5.39555 9.07073 5.42888 9.1544 5.48955 9.2154L7.45155 11.2374C7.50921 11.2967 7.58755 11.3301 7.66921 11.3301C7.75121 11.3301 7.82921 11.2967 7.88688 11.2374L9.84855 9.2154ZM7.66902 6.42236C8.86502 6.42203 10.018 6.87603 10.9044 7.69603C11.024 7.81236 11.213 7.80969 11.3297 7.69036L12.464 6.52003C12.5237 6.45836 12.557 6.37536 12.556 6.28869C12.555 6.20203 12.5204 6.11969 12.4594 6.05936C9.76002 3.49503 5.58002 3.49503 2.88102 6.05936C2.82002 6.11969 2.78536 6.20236 2.78469 6.28869C2.78369 6.37536 2.81669 6.45869 2.87669 6.52003L4.01036 7.69036C4.12736 7.80969 4.31602 7.81236 4.43636 7.69603C5.32202 6.87669 6.47402 6.42269 7.66902 6.42236ZM7.6688 2.61466C9.84513 2.61466 11.9385 3.46899 13.5158 5.00033C13.6341 5.11866 13.8245 5.11733 13.9411 4.99699L15.0768 3.82666C15.1358 3.76599 15.1688 3.68333 15.1685 3.59766C15.1678 3.51166 15.1341 3.42966 15.0741 3.36933C10.9341 -0.683005 4.4028 -0.683005 0.263134 3.36933C0.203134 3.42933 0.169134 3.51166 0.168467 3.59733C0.1678 3.68333 0.2008 3.76599 0.2598 3.82666L1.3958 4.99699C1.5128 5.11733 1.7028 5.11899 1.82147 5.00033C3.3988 3.46866 5.49247 2.61466 7.6688 2.61466Z" fill="black"/>
</g>
</svg>
